<svg width="26" height="26" viewBox="0 0 26 26" fill="none" xmlns="http://www.w3.org/2000/svg">
<path d="M23.813 1L14.4374 8.5L16.1808 4.08L23.813 1Z" fill="#E17726" stroke="#E17726" stroke-width="0.49375" stroke-linecap="round" stroke-linejoin="round"/>
<path d="M2.18713 1L11.4793 8.57L9.81928 4.08L2.18713 1Z" fill="#E27625" stroke="#E27625" stroke-width="0.49375" stroke-linecap="round" stroke-linejoin="round"/>
<path d="M20.4376 18.3901L17.943 22.5101L23.2846 24.1001L24.8147 18.4801L20.4376 18.3901Z" fill="#E27625" stroke="#E27625" stroke-width="0.49375" stroke-linecap="round" stroke-linejoin="round"/>
<path d="M1.1947 18.4801L2.71557 24.1001L8.04787 22.5101L5.56255 18.3901L1.1947 18.4801Z" fill="#E27625" stroke="#E27625" stroke-width="0.49375" stroke-linecap="round" stroke-linejoin="round"/>
<path d="M7.76038 11.43L6.27661 13.85L11.5625 14.11L11.3863 7.95996L7.76038 11.43Z" fill="#E27625" stroke="#E27625" stroke-width="0.49375" stroke-linecap="round" stroke-linejoin="round"/>
<path d="M18.2396 11.4301L14.558 7.89014L14.4374 14.1101L19.7234 13.8501L18.2396 11.4301Z" fill="#E27625" stroke="#E27625" stroke-width="0.49375" stroke-linecap="round" stroke-linejoin="round"/>
<path d="M8.04797 22.51L11.2474 20.84L8.49311 18.52L8.04797 22.51Z" fill="#E27625" stroke="#E27625" stroke-width="0.49375" stroke-linecap="round" stroke-linejoin="round"/>
<path d="M14.7527 20.84L17.9429 22.51L17.507 18.52L14.7527 20.84Z" fill="#E27625" stroke="#E27625" stroke-width="0.49375" stroke-linecap="round" stroke-linejoin="round"/>
<path d="M17.9429 22.5098L14.7527 20.8398L15.0124 23.0798L14.9846 24.0298L17.9429 22.5098Z" fill="#D5BFB2" stroke="#D5BFB2" stroke-width="0.49375" stroke-linecap="round" stroke-linejoin="round"/>
<path d="M8.04791 22.5098L11.0155 24.0298L10.9969 23.0798L11.2473 20.8398L8.04791 22.5098Z" fill="#D5BFB2" stroke="#D5BFB2" stroke-width="0.49375" stroke-linecap="round" stroke-linejoin="round"/>
<path d="M11.0711 17.04L8.41888 16.2L10.2921 15.27L11.0711 17.04Z" fill="#233447" stroke="#233447" stroke-width="0.49375" stroke-linecap="round" stroke-linejoin="round"/>
<path d="M14.9288 17.04L15.7078 15.27L17.5903 16.2L14.9288 17.04Z" fill="#233447" stroke="#233447" stroke-width="0.49375" stroke-linecap="round" stroke-linejoin="round"/>
<path d="M8.04794 22.5101L8.51162 18.3901L5.56262 18.4801L8.04794 22.5101Z" fill="#CC6228" stroke="#CC6228" stroke-width="0.49375" stroke-linecap="round" stroke-linejoin="round"/>
<path d="M17.4885 18.3901L17.9429 22.5101L20.4375 18.4801L17.4885 18.3901Z" fill="#CC6228" stroke="#CC6228" stroke-width="0.49375" stroke-linecap="round" stroke-linejoin="round"/>
<path d="M19.7233 13.8501L14.4374 14.1101L14.9289 17.0401L15.7079 15.2701L17.5904 16.2001L19.7233 13.8501Z" fill="#CC6228" stroke="#CC6228" stroke-width="0.49375" stroke-linecap="round" stroke-linejoin="round"/>
<path d="M8.41875 16.2001L10.292 15.2701L11.071 17.0401L11.5625 14.1101L6.27655 13.8501L8.41875 16.2001Z" fill="#CC6228" stroke="#CC6228" stroke-width="0.49375" stroke-linecap="round" stroke-linejoin="round"/>
<path d="M6.27655 13.8501L8.49293 18.5201L8.41875 16.2001L6.27655 13.8501Z" fill="#E27525" stroke="#E27525" stroke-width="0.49375" stroke-linecap="round" stroke-linejoin="round"/>
<path d="M17.5904 16.2001L17.5069 18.5201L19.7233 13.8501L17.5904 16.2001Z" fill="#E27525" stroke="#E27525" stroke-width="0.49375" stroke-linecap="round" stroke-linejoin="round"/>
<path d="M11.5626 14.1104L11.0711 17.0403L11.6924 20.5003L11.8315 15.9403L11.5626 14.1104Z" fill="#E27525" stroke="#E27525" stroke-width="0.49375" stroke-linecap="round" stroke-linejoin="round"/>
<path d="M14.4373 14.1104L14.1777 15.9303L14.3075 20.5003L14.9288 17.0403L14.4373 14.1104Z" fill="#E27525" stroke="#E27525" stroke-width="0.49375" stroke-linecap="round" stroke-linejoin="round"/>
<path d="M14.9289 17.0402L14.3076 20.5002L14.7527 20.8402L17.5069 18.5202L17.5904 16.2002L14.9289 17.0402Z" fill="#F5841F" stroke="#F5841F" stroke-width="0.49375" stroke-linecap="round" stroke-linejoin="round"/>
<path d="M8.41888 16.2002L8.49307 18.5202L11.2473 20.8402L11.6925 20.5002L11.0711 17.0402L8.41888 16.2002Z" fill="#F5841F" stroke="#F5841F" stroke-width="0.49375" stroke-linecap="round" stroke-linejoin="round"/>
<path d="M14.9845 24.0298L15.0124 23.0798L14.7713 22.8598H11.2287L10.9969 23.0798L11.0155 24.0298L8.04791 22.5098L9.08655 23.4298L11.1917 24.9998H14.7991L16.9134 23.4298L17.9428 22.5098L14.9845 24.0298Z" fill="#C0AC9D" stroke="#C0AC9D" stroke-width="0.49375" stroke-linecap="round" stroke-linejoin="round"/>
<path d="M14.7528 20.84L14.3077 20.5H11.6925L11.2474 20.84L10.997 23.08L11.2288 22.86H14.7714L15.0125 23.08L14.7528 20.84Z" fill="#161616" stroke="#161616" stroke-width="0.49375" stroke-linecap="round" stroke-linejoin="round"/>
<path d="M24.2117 8.99L25 4.85L23.813 1L14.7527 8.25L18.2395 11.43L23.1638 12.98L24.2488 11.61L23.7759 11.24L24.527 10.5L23.9521 10.02L24.7032 9.4L24.2117 8.99Z" fill="#763E1A" stroke="#763E1A" stroke-width="0.49375" stroke-linecap="round" stroke-linejoin="round"/>
<path d="M1 4.85L1.79753 8.99L1.28748 9.4L2.04791 10.02L1.47295 10.5L2.22411 11.24L1.75116 11.61L2.83617 12.98L7.76043 11.43L11.2473 8.25L2.18702 1L1 4.85Z" fill="#763E1A" stroke="#763E1A" stroke-width="0.49375" stroke-linecap="round" stroke-linejoin="round"/>
<path d="M23.1638 12.9802L18.2396 11.4302L19.7233 13.8502L17.507 18.5202L20.4374 18.4802H24.8145L23.1638 12.9802Z" fill="#F5841F" stroke="#F5841F" stroke-width="0.49375" stroke-linecap="round" stroke-linejoin="round"/>
<path d="M7.76033 11.4302L2.83606 12.9802L1.19464 18.4802H5.56249L8.49294 18.5202L6.27656 13.8502L7.76033 11.4302Z" fill="#F5841F" stroke="#F5841F" stroke-width="0.49375" stroke-linecap="round" stroke-linejoin="round"/>
<path d="M14.4375 14.1101L14.7528 8.25008L16.1809 4.08008H9.81927L11.2474 8.25008L11.5627 14.1101L11.6833 15.9501L11.6925 20.5001H14.3077L14.317 15.9501L14.4375 14.1101Z" fill="#F5841F" stroke="#F5841F" stroke-width="0.49375" stroke-linecap="round" stroke-linejoin="round"/>
</svg>
