<svg width="24" height="24" viewBox="0 0 24 24" fill="none" xmlns="http://www.w3.org/2000/svg">
<path d="M18.6787 21.1164L19.7643 23.2989C19.7643 23.2989 21.8643 23.3457 21.9843 23.267C22.1043 23.1882 23.4806 14.5951 17.2331 7.70824C10.6256 0.42012 2.32309 0.47262 2.12434 0.71262C1.92559 0.950745 1.97434 3.86449 1.97434 3.86449L18.6787 21.1164Z" fill="#FF5117"/>
<path d="M10.7287 5.28939C14.8312 7.60877 17.9287 11.1188 19.3631 16.6106C20.0456 19.2225 19.7887 23.295 19.7887 23.295H17.3662L10.1606 12.7163L1.97434 5.04377V2.80127C1.97434 2.80127 6.87184 3.10689 10.7287 5.28939Z" fill="#FF8E00"/>
<path d="M15.7463 14.0473C17.7244 17.8573 17.37 23.2948 17.37 23.2948L15.0056 23.2929L6.93001 12.5642L1.97251 7.46605L1.97626 5.04543C1.97626 5.04543 4.80188 5.01918 9.20063 7.14918C12.7331 8.8573 14.67 11.9754 15.7463 14.0473Z" fill="#F9D81E"/>
<path d="M11.7243 12.1369C15.825 17.2613 15.0487 23.2931 15.0487 23.2931H12.4181L7.9256 15.1425L1.97248 10.2056L1.97435 7.44189C1.97435 7.44189 8.0606 7.55627 11.7243 12.1369Z" fill="#97CC37"/>
<path d="M9.57566 13.2902C13.6669 17.2183 12.7575 23.2933 12.7575 23.2933H10.6463L7.50004 15.4071L1.97254 12.5139L1.97442 9.78581C1.97442 9.78581 5.59129 9.46706 9.57566 13.2902Z" fill="#00C0E9"/>
<path d="M2.05684 14.0098C1.93121 13.813 1.97246 11.7598 1.97246 11.7598C1.97246 11.7598 5.39433 11.698 8.27808 14.9473C11.1562 18.1911 10.7418 23.293 10.7418 23.293C10.7418 23.293 8.76933 23.353 8.68871 23.1936C8.52746 22.8748 9.23433 19.1192 6.88121 16.4698C4.44371 13.7267 2.12621 14.1148 2.05684 14.0098Z" fill="#8177FA"/>
</svg>
